<?xml version="1.0" encoding="utf-8"?>
<!-- Generator: Adobe Illustrator 16.0.0, SVG Export Plug-In . SVG Version: 6.00 Build 0)  -->
<!DOCTYPE svg PUBLIC "-//W3C//DTD SVG 1.1//EN" "http://www.w3.org/Graphics/SVG/1.1/DTD/svg11.dtd">
<svg version="1.1" id="Layer_1" xmlns="http://www.w3.org/2000/svg" xmlns:xlink="http://www.w3.org/1999/xlink" x="0px" y="0px"
	 width="779px" height="353px" viewBox="0 0 779 353" enable-background="new 0 0 779 353" xml:space="preserve">
<g>
	<defs>
		<path id="SVGID_1_" d="M651.662,281.066c-2.703,0-4.008,3.54-2.468,6.151c6.59,11.183,4.224,17.456-1.443,25.937
			c-1.64,2.454-0.124,6.055,2.529,6.055h118.846c1.765,0,3.197-1.684,3.197-3.761v-30.621c0-2.077-1.433-3.761-3.197-3.761H651.662z
			"/>
	</defs>
	<clipPath id="SVGID_2_">
		<use xlink:href="#SVGID_1_"  overflow="visible"/>
	</clipPath>
	
		<linearGradient id="SVGID_3_" gradientUnits="userSpaceOnUse" x1="-59" y1="467.001" x2="-58" y2="467.001" gradientTransform="matrix(125.2511 0 0 -125.2511 8036.8599 58792.4414)">
		<stop  offset="0" style="stop-color:#439EFF"/>
		<stop  offset="1" style="stop-color:#2C6CFF"/>
		<stop  offset="1" style="stop-color:#2C6CFF"/>
	</linearGradient>
	<rect x="646.111" y="281.066" clip-path="url(#SVGID_2_)" fill="url(#SVGID_3_)" width="126.212" height="38.143"/>
</g>
<g>
	<defs>
		<rect id="SVGID_4_" x="-59" y="-128.2" width="920.64" height="595.2"/>
	</defs>
	<clipPath id="SVGID_5_">
		<use xlink:href="#SVGID_4_"  overflow="visible"/>
	</clipPath>
	<polygon clip-path="url(#SVGID_5_)" points="228.771,208.01 205.896,208.01 205.896,270.306 199.1,270.353 199.1,208.01 
		176.318,208.01 176.318,201.213 228.771,201.213 	"/>
	<path clip-path="url(#SVGID_5_)" d="M239.657,236.136c-0.547,1.792-0.821,3.909-0.821,6.349c0,6.322,2.228,11.725,6.684,16.204
		c4.48,4.456,9.882,6.685,16.205,6.685c6.322,0,11.724-2.229,16.205-6.685c2.563-2.563,4.443-5.588,5.638-9.072h5.601
		c-1.469,5.078-3.958,9.358-7.468,12.845c-5.526,5.525-12.185,8.289-19.976,8.289c-7.792,0-14.45-2.764-19.977-8.289
		c-5.526-5.527-8.289-12.186-8.289-19.977c0.025-7.791,2.8-14.45,8.327-19.977c5.526-5.527,12.184-8.29,19.976-8.29
		c7.791,0,14.45,2.763,19.976,8.29c3.734,3.733,6.286,8.251,7.655,13.553L239.657,236.136z M281.588,230.946
		c-0.672-1.319-1.892-2.875-3.659-4.667c-4.481-4.456-9.883-6.685-16.205-6.685c-6.323,0-11.725,2.229-16.205,6.685
		c-1.768,1.792-2.988,3.348-3.66,4.667H281.588z"/>
	<path clip-path="url(#SVGID_5_)" d="M343.272,249.616h5.601c-1.469,5.077-3.958,9.358-7.468,12.845
		c-5.526,5.524-12.185,8.289-19.976,8.289c-7.792,0-14.45-2.765-19.977-8.289c-5.526-5.527-8.289-12.187-8.289-19.978
		c0.025-7.791,2.8-14.449,8.327-19.976c5.526-5.527,12.184-8.289,19.976-8.289c7.791,0,14.45,2.762,19.976,8.289
		c3.734,3.733,6.286,8.289,7.655,13.666h-5.601c-1.17-3.809-3.124-7.107-5.862-9.895c-4.481-4.456-9.883-6.685-16.205-6.685
		c-6.324,0-11.725,2.229-16.205,6.685c-4.456,4.48-6.684,9.882-6.684,16.204c0,6.323,2.228,11.726,6.684,16.205
		c4.48,4.456,9.881,6.685,16.205,6.685c6.322,0,11.724-2.229,16.205-6.685C340.198,256.126,342.078,253.101,343.272,249.616"/>
	<path clip-path="url(#SVGID_5_)" d="M362.241,225.458c0.099-0.175,0.846-1.047,2.24-2.614c4.904-5.527,10.803-8.289,17.699-8.289
		c6.92,0,12.832,2.775,17.736,8.326c4.879,5.476,7.354,12.11,7.43,19.901v27.406h-5.265v-27.406
		c-0.074-6.222-2.053-11.538-5.936-15.943c-3.859-4.356-8.501-6.534-13.928-6.534c-5.427,0-10.081,2.166-13.964,6.497
		c-3.884,4.382-5.876,9.671-5.975,15.869v27.518h-5.265v-66.612h5.228V225.458z"/>
	<path clip-path="url(#SVGID_5_)" d="M411.08,242.708c0.1-7.768,2.589-14.389,7.468-19.864c4.903-5.527,10.803-8.289,17.698-8.289
		c6.92,0,12.832,2.775,17.735,8.326c4.879,5.476,7.356,12.11,7.432,19.901v27.406h-5.266v-27.406
		c-0.075-6.222-2.053-11.538-5.937-15.943c-3.859-4.356-8.501-6.534-13.927-6.534c-5.429,0-10.082,2.166-13.966,6.497
		c-3.884,4.382-5.875,9.671-5.974,15.869v27.518h-5.265V242.708z"/>
	<path clip-path="url(#SVGID_5_)" d="M493.449,214.219c7.791,0,14.449,2.762,19.977,8.289c5.526,5.526,8.276,12.185,8.252,19.976
		c0,7.791-2.763,14.451-8.289,19.978c-5.527,5.524-12.186,8.289-19.977,8.289c-7.792,0-14.45-2.765-19.978-8.289
		c-5.525-5.526-8.289-12.187-8.289-19.978c0.025-7.791,2.802-14.449,8.327-19.976C478.999,216.98,485.658,214.219,493.449,214.219
		 M493.412,265.373c6.321,0,11.725-2.229,16.205-6.685c4.455-4.479,6.684-9.881,6.684-16.205c0-6.322-2.229-11.724-6.684-16.205
		c-4.48-4.456-9.884-6.683-16.205-6.683c-6.323,0-11.726,2.227-16.205,6.683c-4.456,4.481-6.685,9.883-6.685,16.205
		c0,6.324,2.229,11.726,6.685,16.205C481.687,263.145,487.089,265.373,493.412,265.373"/>
	<rect x="529.594" y="203.614" clip-path="url(#SVGID_5_)" width="5.414" height="66.501"/>
	<path clip-path="url(#SVGID_5_)" d="M567.045,214.219c7.791,0,14.449,2.762,19.977,8.289c5.526,5.526,8.276,12.185,8.252,19.976
		c0,7.791-2.763,14.451-8.289,19.978c-5.527,5.524-12.186,8.289-19.977,8.289c-7.792,0-14.45-2.765-19.978-8.289
		c-5.525-5.526-8.289-12.187-8.289-19.978c0.025-7.791,2.802-14.449,8.327-19.976C552.595,216.98,559.254,214.219,567.045,214.219
		 M567.008,265.373c6.321,0,11.725-2.229,16.205-6.685c4.455-4.479,6.684-9.881,6.684-16.205c0-6.322-2.229-11.724-6.684-16.205
		c-4.48-4.456-9.884-6.683-16.205-6.683c-6.323,0-11.726,2.227-16.205,6.683c-4.456,4.481-6.685,9.883-6.685,16.205
		c0,6.324,2.229,11.726,6.685,16.205C555.282,263.145,560.685,265.373,567.008,265.373"/>
	<path clip-path="url(#SVGID_5_)" d="M649.862,225.346c3.833,4.755,5.738,10.468,5.713,17.138c0,7.791-2.762,14.451-8.289,19.978
		c-5.525,5.524-12.185,8.289-19.976,8.289c-7.792,0-14.45-2.765-19.978-8.289c-5.525-5.526-8.288-12.187-8.288-19.978
		c0.024-7.791,2.801-14.45,8.325-19.976c5.527-5.526,12.187-8.289,19.978-8.289c7.492,0,13.629,2.265,18.408,6.796
		c1.145-1.917,0.447-4.905-2.092-8.962l4.742-2.128l1.381,3.099c1.419,3.162,1.731,6.422,0.935,9.783
		C650.447,223.927,650.161,224.773,649.862,225.346 M627.311,265.372c6.322,0,11.724-2.227,16.205-6.683
		c4.455-4.48,6.683-9.882,6.683-16.206c0-6.323-2.228-11.724-6.683-16.205c-4.481-4.456-9.883-6.683-16.205-6.683
		c-6.323,0-11.725,2.227-16.205,6.683c-4.456,4.481-6.684,9.882-6.684,16.205c0,6.324,2.228,11.726,6.684,16.206
		C615.586,263.146,620.987,265.372,627.311,265.372 M627.796,279.599c5.476,0,10.168,1.954,14.076,5.862
		c3.907,3.884,5.85,8.574,5.824,14.076c0,5.501-1.954,10.194-5.862,14.077c-3.883,3.908-8.574,5.862-14.075,5.862
		c-5.502,0-10.193-1.954-14.077-5.862c-3.908-3.883-5.862-8.576-5.862-14.077c0.024-5.502,1.979-10.192,5.862-14.076
		C617.59,281.553,622.293,279.599,627.796,279.599 M612.374,266.979l1.233,1.867c0.472,0.721,1.157,1.456,2.053,2.203
		c1.842,1.367,3.92,2.054,6.236,2.054h10.716c3.609,0,6.833,1.094,9.67,3.285c1.419,1.144,2.502,2.327,3.249,3.548l1.121,1.866
		l-2.688,1.643l-1.83,1.121l-1.194-1.831c-0.449-0.721-1.146-1.443-2.091-2.165c-1.793-1.37-3.86-2.053-6.198-2.053h-10.717
		c-3.61,0-6.821-1.096-9.634-3.286c-1.47-1.146-2.576-2.329-3.322-3.547l-1.121-1.905l2.688-1.605L612.374,266.979z
		 M627.759,314.212c4.057,0,7.518-1.433,10.38-4.294c2.861-2.862,4.294-6.323,4.294-10.381c0-4.057-1.433-7.517-4.294-10.38
		c-2.862-2.862-6.323-4.294-10.38-4.294c-4.059,0-7.52,1.432-10.382,4.294c-2.861,2.863-4.294,6.323-4.294,10.38
		c0,4.058,1.433,7.519,4.294,10.381C620.239,312.779,623.7,314.212,627.759,314.212"/>
	<path clip-path="url(#SVGID_5_)" d="M668.906,208.766h-5.414v-5.114h5.414V208.766z M668.906,270.115h-5.414V215.04h5.414V270.115z
		"/>
	<path clip-path="url(#SVGID_5_)" d="M678.838,236.136c-0.547,1.792-0.82,3.909-0.82,6.349c0,6.322,2.228,11.725,6.684,16.204
		c4.48,4.456,9.882,6.685,16.205,6.685c6.322,0,11.724-2.229,16.205-6.685c2.563-2.563,4.443-5.588,5.638-9.072h5.602
		c-1.471,5.078-3.958,9.358-7.469,12.845c-5.525,5.525-12.185,8.289-19.976,8.289c-7.792,0-14.45-2.764-19.977-8.289
		c-5.526-5.527-8.289-12.186-8.289-19.977c0.024-7.791,2.801-14.45,8.325-19.977c5.527-5.527,12.187-8.29,19.978-8.29
		s14.45,2.763,19.976,8.29c3.734,3.733,6.286,8.251,7.655,13.553L678.838,236.136z M720.771,230.946
		c-0.673-1.319-1.893-2.875-3.659-4.667c-4.481-4.456-9.883-6.685-16.205-6.685c-6.323,0-11.725,2.229-16.205,6.685
		c-1.768,1.792-2.988,3.348-3.66,4.667H720.771z"/>
	<path clip-path="url(#SVGID_5_)" d="M756.653,221.238c-1.194-1.17-2.627-1.756-4.294-1.756c-1.668,0-3.074,0.586-4.221,1.756
		c-1.17,1.17-1.755,2.589-1.755,4.257c0,1.618,0.585,3.012,1.755,4.181c0.897,0.947,2.565,1.495,5.004,1.644
		c2.44,0.148,4.594,0.635,6.46,1.457c3.81,1.442,6.87,3.833,9.186,7.169c2.438,3.409,3.659,7.182,3.659,11.313
		c0,5.451-1.967,10.094-5.899,13.927c-3.933,3.884-8.651,5.824-14.151,5.824c-5.477,0-10.156-1.904-14.039-5.712
		c-3.908-3.758-5.912-8.588-6.013-14.488h5.34c0.1,4.383,1.58,7.953,4.444,10.718c2.862,2.763,6.285,4.145,10.268,4.145
		c4.058,0,7.505-1.419,10.343-4.257c2.888-2.813,4.332-6.198,4.332-10.156c0-4.008-1.433-7.418-4.294-10.23
		c-2.913-2.839-6.212-4.352-9.896-4.537c-3.684-0.188-6.324-1.002-7.917-2.445c-0.323-0.249-0.535-0.436-0.634-0.561
		c-2.241-2.216-3.348-4.88-3.323-7.99c0-3.138,1.121-5.813,3.361-8.028c2.188-2.215,4.853-3.324,7.99-3.324
		c3.137,0,5.837,1.109,8.103,3.324l2.053,2.053l-4.592,3.474C757.624,222.345,757.2,221.76,756.653,221.238"/>
	<path clip-path="url(#SVGID_5_)" fill="#439EFF" d="M71.36,134.663c28.761,0,52.16,23.417,52.16,52.201
		c0,28.784-23.399,52.202-52.16,52.202c-28.761,0-52.16-23.418-52.16-52.202C19.2,158.08,42.599,134.663,71.36,134.663
		 M71.36,124.663c-34.33,0-62.16,27.849-62.16,62.201c0,34.354,27.83,62.202,62.16,62.202s62.16-27.849,62.16-62.202
		C133.52,152.511,105.69,124.663,71.36,124.663"/>
</g>
<g>
	<defs>
		<path id="SVGID_6_" d="M81.963,13.769c-5.076,3.515-9.069,8.893-11.984,16.134c-4.534,10.92-7.233,24.704-8.096,41.35
			l-2.916,94.213c0,20.649,0.648,44.431,1.944,71.349c0.972,21.079,2.373,39.351,4.211,54.808
			c0.971,8.433,1.457,14.919,1.457,19.458c0,3.568-0.595,6.106-1.782,7.622c-1.189,1.513-2.699,2.27-4.534,2.27
			c-2.161,0-4.805-1.729-7.935-5.188c-3.133-3.462-6.858-5.19-11.174-5.19c-4.211,0-7.692,1.459-10.446,4.378
			c-2.753,2.92-4.129,6.812-4.129,11.677c0,5.728,1.781,10.431,5.344,14.106c3.563,3.674,8.15,5.514,13.765,5.514
			c8.636,0,15.871-3.624,21.701-10.864c8.85-11.244,13.709-32.81,14.574-64.7c1.726-56.212,2.591-88.104,2.591-95.671
			c0-27.243-1.998-63.079-5.992-107.51c-0.972-11.242-1.458-19.078-1.458-23.512c0-3.783,0.62-6.459,1.863-8.027
			c1.24-1.565,2.779-2.351,4.615-2.351s3.994,1.082,6.478,3.243c4.426,3.892,8.527,5.838,12.308,5.838
			c4.21,0,7.746-1.541,10.608-4.622c2.859-3.08,4.291-7.16,4.291-12.243c0-4.322-2.024-8.295-6.073-11.918
			c-4.049-3.621-8.773-5.432-14.17-5.432C92.057,8.499,87.037,10.257,81.963,13.769"/>
	</defs>
	<clipPath id="SVGID_7_">
		<use xlink:href="#SVGID_6_"  overflow="visible"/>
	</clipPath>
	
		<linearGradient id="SVGID_8_" gradientUnits="userSpaceOnUse" x1="-59" y1="466.999" x2="-58" y2="466.999" gradientTransform="matrix(90.688 0 0 -90.688 5377.1792 42528.6445)">
		<stop  offset="0" style="stop-color:#439EFF"/>
		<stop  offset="1" style="stop-color:#2C6CFF"/>
		<stop  offset="1" style="stop-color:#2C6CFF"/>
	</linearGradient>
	<rect x="26.579" y="8.499" clip-path="url(#SVGID_7_)" fill="url(#SVGID_8_)" width="90.688" height="337.77"/>
</g>
<g>
	<defs>
		<polygon id="SVGID_9_" points="174.244,69.899 174.244,186.414 202.333,186.414 202.333,140 247.626,140 247.626,118.394 
			202.333,118.394 202.333,91.586 252.188,91.586 252.188,69.899 		"/>
	</defs>
	<clipPath id="SVGID_10_">
		<use xlink:href="#SVGID_9_"  overflow="visible"/>
	</clipPath>
	
		<linearGradient id="SVGID_11_" gradientUnits="userSpaceOnUse" x1="-59" y1="467" x2="-58" y2="467" gradientTransform="matrix(702.5557 0 0 -702.5557 41665.1797 328221.4688)">
		<stop  offset="0" style="stop-color:#FFFFFF"/>
		<stop  offset="1" style="stop-color:#231F20"/>
	</linearGradient>
	<rect x="174.244" y="69.899" clip-path="url(#SVGID_10_)" fill="url(#SVGID_11_)" width="77.944" height="116.515"/>
</g>
<g>
	<defs>
		<path id="SVGID_12_" d="M327.543,69.899v76.103c0,7.203-1.494,12.404-4.48,15.605c-2.989,3.201-7.391,4.802-13.205,4.802
			c-5.71,0-10.096-1.601-13.164-4.802c-3.069-3.201-4.601-8.402-4.601-15.605V69.899h-28.249v76.103
			c0,6.831,1.121,12.858,3.361,18.086c2.241,5.229,5.374,9.616,9.403,13.163c4.028,3.549,8.869,6.23,14.524,8.044
			c5.655,1.813,11.897,2.72,18.726,2.72c6.882,0,13.136-0.907,18.766-2.72c5.627-1.813,10.442-4.495,14.444-8.044
			c4.001-3.547,7.095-7.934,9.282-13.163c2.187-5.228,3.282-11.255,3.282-18.086V69.899H327.543z"/>
	</defs>
	<clipPath id="SVGID_13_">
		<use xlink:href="#SVGID_12_"  overflow="visible"/>
	</clipPath>
	
		<linearGradient id="SVGID_14_" gradientUnits="userSpaceOnUse" x1="-59" y1="467" x2="-58" y2="467" gradientTransform="matrix(702.5557 0 0 -702.5557 41665.1797 328222.4688)">
		<stop  offset="0" style="stop-color:#FFFFFF"/>
		<stop  offset="1" style="stop-color:#231F20"/>
	</linearGradient>
	<rect x="263.844" y="69.899" clip-path="url(#SVGID_13_)" fill="url(#SVGID_14_)" width="91.788" height="118.116"/>
</g>
<g>
	<defs>
		<polygon id="SVGID_15_" points="367.323,69.899 367.323,91.586 401.652,91.586 401.652,186.414 429.741,186.414 429.741,91.586 
			464.712,91.586 464.712,69.899 		"/>
	</defs>
	<clipPath id="SVGID_16_">
		<use xlink:href="#SVGID_15_"  overflow="visible"/>
	</clipPath>
	
		<linearGradient id="SVGID_17_" gradientUnits="userSpaceOnUse" x1="-59" y1="467" x2="-58" y2="467" gradientTransform="matrix(702.5557 0 0 -702.5557 41665.1797 328221.4688)">
		<stop  offset="0" style="stop-color:#FFFFFF"/>
		<stop  offset="1" style="stop-color:#231F20"/>
	</linearGradient>
	<rect x="367.323" y="69.899" clip-path="url(#SVGID_16_)" fill="url(#SVGID_17_)" width="97.389" height="116.515"/>
</g>
<g>
	<defs>
		<path id="SVGID_18_" d="M539.542,69.899v76.103c0,7.203-1.494,12.404-4.481,15.605c-2.987,3.201-7.39,4.802-13.203,4.802
			c-5.709,0-10.098-1.601-13.163-4.802c-3.069-3.201-4.603-8.402-4.603-15.605V69.899h-28.249v76.103
			c0,6.831,1.121,12.858,3.361,18.086c2.241,5.229,5.374,9.616,9.403,13.163c4.027,3.549,8.868,6.23,14.524,8.044
			c5.654,1.813,11.896,2.72,18.726,2.72c6.883,0,13.137-0.907,18.765-2.72c5.629-1.813,10.444-4.495,14.445-8.044
			c4.002-3.547,7.095-7.934,9.282-13.163c2.188-5.228,3.281-11.255,3.281-18.086V69.899H539.542z"/>
	</defs>
	<clipPath id="SVGID_19_">
		<use xlink:href="#SVGID_18_"  overflow="visible"/>
	</clipPath>
	
		<linearGradient id="SVGID_20_" gradientUnits="userSpaceOnUse" x1="-59" y1="467" x2="-58" y2="467" gradientTransform="matrix(702.5557 0 0 -702.5557 41665.1797 328222.4688)">
		<stop  offset="0" style="stop-color:#FFFFFF"/>
		<stop  offset="1" style="stop-color:#231F20"/>
	</linearGradient>
	<rect x="475.843" y="69.899" clip-path="url(#SVGID_19_)" fill="url(#SVGID_20_)" width="91.788" height="118.116"/>
</g>
<g>
	<defs>
		<path id="SVGID_21_" d="M613.332,91.586h17.765c5.283,0,9.283,1.428,12.004,4.281c2.721,2.855,4.081,6.79,4.081,11.804
			c0,5.015-1.347,8.922-4.041,11.724c-2.693,2.801-6.71,4.201-12.044,4.201h-17.765V91.586z M585.243,69.899v116.515h28.089v-41.132
			h15.205l20.566,41.132h30.089v-1.199l-24.327-46.975c3.041-1.44,5.814-3.134,8.322-5.081c2.507-1.947,4.654-4.242,6.441-6.883
			c1.787-2.64,3.161-5.708,4.121-9.202c0.961-3.494,1.441-7.483,1.441-11.964c0-5.762-1.029-10.83-3.081-15.205
			c-2.056-4.374-5.002-8.042-8.844-11.003c-3.84-2.96-8.481-5.201-13.924-6.722c-5.441-1.52-11.522-2.281-18.246-2.281H585.243z"/>
	</defs>
	<clipPath id="SVGID_22_">
		<use xlink:href="#SVGID_21_"  overflow="visible"/>
	</clipPath>
	
		<linearGradient id="SVGID_23_" gradientUnits="userSpaceOnUse" x1="-59" y1="467" x2="-58" y2="467" gradientTransform="matrix(702.5557 0 0 -702.5557 41665.1797 328221.4688)">
		<stop  offset="0" style="stop-color:#FFFFFF"/>
		<stop  offset="1" style="stop-color:#231F20"/>
	</linearGradient>
	<rect x="585.243" y="69.899" clip-path="url(#SVGID_22_)" fill="url(#SVGID_23_)" width="93.949" height="116.515"/>
</g>
<g>
	<defs>
		<polygon id="SVGID_24_" points="692.243,69.899 692.243,186.414 772.507,186.414 772.507,164.808 720.332,164.808 
			720.332,137.039 764.505,137.039 764.505,116.153 720.332,116.153 720.332,91.586 772.667,91.586 772.667,69.899 		"/>
	</defs>
	<clipPath id="SVGID_25_">
		<use xlink:href="#SVGID_24_"  overflow="visible"/>
	</clipPath>
	
		<linearGradient id="SVGID_26_" gradientUnits="userSpaceOnUse" x1="-59" y1="467" x2="-58" y2="467" gradientTransform="matrix(702.5557 0 0 -702.5557 41665.1797 328221.4688)">
		<stop  offset="0" style="stop-color:#FFFFFF"/>
		<stop  offset="1" style="stop-color:#231F20"/>
	</linearGradient>
	<rect x="692.243" y="69.899" clip-path="url(#SVGID_25_)" fill="url(#SVGID_26_)" width="80.424" height="116.515"/>
</g>
<g>
	<defs>
		<polygon id="SVGID_27_" points="174.244,69.899 174.244,186.414 202.333,186.414 202.333,140 247.626,140 247.626,118.394 
			202.333,118.394 202.333,91.586 252.188,91.586 252.188,69.899 		"/>
	</defs>
	<clipPath id="SVGID_28_">
		<use xlink:href="#SVGID_27_"  overflow="visible"/>
	</clipPath>
	
		<linearGradient id="SVGID_29_" gradientUnits="userSpaceOnUse" x1="-59" y1="467.123" x2="-58" y2="467.123" gradientTransform="matrix(-92.0456 104.0386 104.0386 92.0456 -53770.2578 -36782.1484)">
		<stop  offset="0" style="stop-color:#439EFF"/>
		<stop  offset="1" style="stop-color:#2C6CFF"/>
		<stop  offset="1" style="stop-color:#2C6CFF"/>
	</linearGradient>
	<polygon clip-path="url(#SVGID_28_)" fill="url(#SVGID_29_)" points="310.011,121.057 217.965,225.096 116.421,135.256 
		208.466,31.217 	"/>
</g>
<g>
	<defs>
		<path id="SVGID_30_" d="M327.543,69.899v76.103c0,7.203-1.494,12.404-4.48,15.605c-2.989,3.201-7.391,4.802-13.205,4.802
			c-5.71,0-10.096-1.601-13.164-4.802c-3.069-3.201-4.601-8.402-4.601-15.605V69.899h-28.249v76.103
			c0,6.831,1.121,12.858,3.361,18.086c2.241,5.229,5.374,9.616,9.403,13.163c4.028,3.549,8.869,6.23,14.524,8.044
			c5.655,1.813,11.897,2.72,18.726,2.72c6.882,0,13.136-0.907,18.766-2.72c5.627-1.813,10.442-4.495,14.444-8.044
			c4.001-3.547,7.095-7.934,9.282-13.163c2.187-5.228,3.282-11.255,3.282-18.086V69.899H327.543z"/>
	</defs>
	<clipPath id="SVGID_31_">
		<use xlink:href="#SVGID_30_"  overflow="visible"/>
	</clipPath>
	
		<linearGradient id="SVGID_32_" gradientUnits="userSpaceOnUse" x1="-59" y1="467.0898" x2="-58" y2="467.0898" gradientTransform="matrix(-60.8205 68.7451 68.7451 60.8205 -35345.8867 -24272.1113)">
		<stop  offset="0" style="stop-color:#439EFF"/>
		<stop  offset="1" style="stop-color:#2C6CFF"/>
		<stop  offset="1" style="stop-color:#2C6CFF"/>
	</linearGradient>
	<polygon clip-path="url(#SVGID_31_)" fill="url(#SVGID_32_)" points="414.25,121.76 315.331,233.567 205.226,136.154 
		304.145,24.347 	"/>
</g>
<g>
	<defs>
		<polygon id="SVGID_33_" points="367.323,69.899 367.323,91.586 401.652,91.586 401.652,186.414 429.741,186.414 429.741,91.586 
			464.712,91.586 464.712,69.899 		"/>
	</defs>
	<clipPath id="SVGID_34_">
		<use xlink:href="#SVGID_33_"  overflow="visible"/>
	</clipPath>
	
		<linearGradient id="SVGID_35_" gradientUnits="userSpaceOnUse" x1="-59" y1="466.877" x2="-58" y2="466.877" gradientTransform="matrix(70.2607 67.4394 67.4394 -70.2607 -26970.0117 36866.6523)">
		<stop  offset="0" style="stop-color:#439EFF"/>
		<stop  offset="1" style="stop-color:#2C6CFF"/>
		<stop  offset="1" style="stop-color:#2C6CFF"/>
	</linearGradient>
	<polygon clip-path="url(#SVGID_34_)" fill="url(#SVGID_35_)" points="414.022,21.246 522.921,125.771 418.012,235.067 
		309.114,130.543 	"/>
</g>
<g>
	<defs>
		<path id="SVGID_36_" d="M539.542,69.899v76.103c0,7.203-1.494,12.404-4.481,15.605c-2.987,3.201-7.39,4.802-13.203,4.802
			c-5.709,0-10.098-1.601-13.163-4.802c-3.069-3.201-4.603-8.402-4.603-15.605V69.899h-28.249v76.103
			c0,6.831,1.121,12.858,3.361,18.086c2.241,5.229,5.374,9.616,9.403,13.163c4.027,3.549,8.868,6.23,14.524,8.044
			c5.654,1.813,11.896,2.72,18.726,2.72c6.883,0,13.137-0.907,18.765-2.72c5.629-1.813,10.444-4.495,14.445-8.044
			c4.002-3.547,7.095-7.934,9.282-13.163c2.188-5.228,3.281-11.255,3.281-18.086V69.899H539.542z"/>
	</defs>
	<clipPath id="SVGID_37_">
		<use xlink:href="#SVGID_36_"  overflow="visible"/>
	</clipPath>
	
		<linearGradient id="SVGID_38_" gradientUnits="userSpaceOnUse" x1="-59" y1="467.0605" x2="-58" y2="467.0605" gradientTransform="matrix(-87.9729 99.4353 99.4353 87.9729 -51061.5703 -35149.0547)">
		<stop  offset="0" style="stop-color:#439EFF"/>
		<stop  offset="1" style="stop-color:#2C6CFF"/>
		<stop  offset="1" style="stop-color:#2C6CFF"/>
	</linearGradient>
	<polygon clip-path="url(#SVGID_37_)" fill="url(#SVGID_38_)" points="626.249,121.76 527.33,233.567 417.226,136.154 
		516.144,24.347 	"/>
</g>
<g>
	<defs>
		<path id="SVGID_39_" d="M613.332,91.586h17.765c5.283,0,9.283,1.428,12.004,4.281c2.721,2.855,4.081,6.79,4.081,11.804
			c0,5.015-1.347,8.922-4.041,11.724c-2.693,2.801-6.71,4.201-12.044,4.201h-17.765V91.586z M585.243,69.899v116.515h28.089v-41.132
			h15.205l20.566,41.132h30.089v-1.199l-24.327-46.975c3.041-1.44,5.814-3.134,8.322-5.081c2.507-1.947,4.654-4.242,6.441-6.883
			c1.787-2.64,3.161-5.708,4.121-9.202c0.961-3.494,1.441-7.483,1.441-11.964c0-5.762-1.029-10.83-3.081-15.205
			c-2.056-4.374-5.002-8.042-8.844-11.003c-3.84-2.96-8.481-5.201-13.924-6.722c-5.441-1.52-11.522-2.281-18.246-2.281H585.243z"/>
	</defs>
	<clipPath id="SVGID_40_">
		<use xlink:href="#SVGID_39_"  overflow="visible"/>
	</clipPath>
	
		<linearGradient id="SVGID_41_" gradientUnits="userSpaceOnUse" x1="-59" y1="467" x2="-58" y2="467" gradientTransform="matrix(-87.6605 99.0822 99.0822 87.6605 -50773.0117 -35006.5547)">
		<stop  offset="0" style="stop-color:#439EFF"/>
		<stop  offset="1" style="stop-color:#2C6CFF"/>
		<stop  offset="1" style="stop-color:#2C6CFF"/>
	</linearGradient>
	<polygon clip-path="url(#SVGID_40_)" fill="url(#SVGID_41_)" points="737.016,121.057 637.942,233.038 527.42,135.256 
		626.493,23.274 	"/>
</g>
<g>
	<defs>
		<polygon id="SVGID_42_" points="692.243,69.899 692.243,186.414 772.507,186.414 772.507,164.808 720.332,164.808 
			720.332,137.039 764.505,137.039 764.505,116.153 720.332,116.153 720.332,91.586 772.667,91.586 772.667,69.899 		"/>
	</defs>
	<clipPath id="SVGID_43_">
		<use xlink:href="#SVGID_42_"  overflow="visible"/>
	</clipPath>
	
		<linearGradient id="SVGID_44_" gradientUnits="userSpaceOnUse" x1="-58.9995" y1="467.002" x2="-57.9995" y2="467.002" gradientTransform="matrix(-93.1346 105.2696 105.2696 93.1346 -53876.8516 -37207.543)">
		<stop  offset="0" style="stop-color:#439EFF"/>
		<stop  offset="1" style="stop-color:#2C6CFF"/>
		<stop  offset="1" style="stop-color:#2C6CFF"/>
	</linearGradient>
	<polygon clip-path="url(#SVGID_43_)" fill="url(#SVGID_44_)" points="830.49,121.057 737.355,226.326 634.42,135.256 
		727.555,29.987 	"/>
</g>
<path fill="#FFFFFF" d="M663.959,305.416h-14.326l0.317-2.515h14.326L663.959,305.416z M664.558,300.494h-14.326l0.299-2.515h14.326
	L664.558,300.494z"/>
<polygon fill="#FFFFFF" points="698.636,312.43 698.336,314.979 678.455,314.979 681.638,289.051 684.187,289.051 681.304,312.43 
	"/>
<g>
	<defs>
		<rect id="SVGID_45_" x="-59" y="-128.2" width="920.64" height="595.2"/>
	</defs>
	<clipPath id="SVGID_46_">
		<use xlink:href="#SVGID_45_"  overflow="visible"/>
	</clipPath>
	<path clip-path="url(#SVGID_46_)" fill="#FFFFFF" d="M720.153,309.897c-0.142,0.188-0.656,0.681-1.547,1.478
		c-2.931,2.601-6.229,3.901-9.896,3.901s-6.639-1.301-8.913-3.901c-2.285-2.603-3.205-5.736-2.759-9.404
		c0.468-3.668,2.162-6.803,5.08-9.405c2.918-2.601,6.211-3.901,9.879-3.901s6.644,1.301,8.929,3.901
		c2.286,2.603,3.194,5.737,2.726,9.405l-1.582,13.007h-2.531L720.153,309.897z M709.026,312.746c2.977,0,5.647-1.05,8.016-3.146
		c2.355-2.11,3.714-4.653,4.078-7.629c0.375-2.977-0.358-5.52-2.198-7.629c-1.851-2.098-4.265-3.147-7.242-3.147
		c-2.976,0-5.647,1.05-8.015,3.147c-2.356,2.109-3.721,4.652-4.096,7.629c-0.363,2.976,0.375,5.519,2.215,7.629
		C703.635,311.696,706.049,312.746,709.026,312.746"/>
	<path clip-path="url(#SVGID_46_)" fill="#FFFFFF" d="M728.571,294.043c0.141-0.188,0.655-0.68,1.547-1.478
		c2.918-2.601,6.211-3.901,9.879-3.901s6.644,1.301,8.93,3.901c2.285,2.603,3.199,5.736,2.742,9.404s-2.146,6.803-5.063,9.405
		c-2.929,2.601-6.228,3.902-9.896,3.902s-6.639-1.302-8.912-3.902c-2.286-2.603-3.2-5.737-2.743-9.405l2.25-18.334h2.532
		L728.571,294.043z M739.698,291.195c-2.978,0-5.648,1.049-8.017,3.146c-2.354,2.11-3.72,4.653-4.095,7.629
		c-0.364,2.978,0.375,5.521,2.215,7.629c1.851,2.099,4.265,3.147,7.242,3.147c2.976,0,5.647-1.049,8.015-3.147
		c2.356-2.108,3.715-4.651,4.078-7.629c0.375-2.976-0.356-5.519-2.197-7.629C745.089,292.244,742.675,291.195,739.698,291.195"/>
</g>
</svg>
